PathFileType	4	(X/Y/Z)	 s06c0201.trc
DataRate	CameraRate	NumFrames	NumMarkers	Units	OrigDataRate	OrigDataStartFrame	OrigNumFrames
200	200	4	49	mm	200	501	2000
Frame#	Time	racr			lacr			c7			jug			rlel			rdr			llel			ldr			s2			lic			ric			lasi			rasi			rpsi			lpsi			rgt			lgt			rth1			rth2			rth3			rth4			rlfc			rmfc			rsh1			rsh2			rsh3			rsh4			rlmal			rmmal			rcal			rtoe			rmt5			lth1			lth2			lth4			lth3			llfc			lmfc			llmal			lcal			lmt5			lsh1			lsh2			lsh3			lsh4			ltoe			SBIKE			LBIKE			RBIKE			
		X1	Y1	Z1	X2	Y2	Z2	X3	Y3	Z3	X4	Y4	Z4	X5	Y5	Z5	X6	Y6	Z6	X7	Y7	Z7	X8	Y8	Z8	X9	Y9	Z9	X10	Y10	Z10	X11	Y11	Z11	X12	Y12	Z12	X13	Y13	Z13	X14	Y14	Z14	X15	Y15	Z15	X16	Y16	Z16	X17	Y17	Z17	X18	Y18	Z18	X19	Y19	Z19	X20	Y20	Z20	X21	Y21	Z21	X22	Y22	Z22	X23	Y23	Z23	X24	Y24	Z24	X25	Y25	Z25	X26	Y26	Z26	X27	Y27	Z27	X28	Y28	Z28	X29	Y29	Z29	X30	Y30	Z30	X31	Y31	Z31	X32	Y32	Z32	X33	Y33	Z33	X34	Y34	Z34	X35	Y35	Z35	X36	Y36	Z36	X37	Y37	Z37	X38	Y38	Z38	X39	Y39	Z39	X40	Y40	Z40	X41	Y41	Z41	X42	Y42	Z42	X43	Y43	Z43	X44	Y44	Z44	X45	Y45	Z45	X46	Y46	Z46	X47	Y47	Z47	X48	Y48	Z48	X49	Y49	Z49	
501	2.5050	468.257490	1335.810199	-68.268284	469.024388	1348.261107	-379.335902	453.512533	1436.865091	-230.650217	469.018188	1267.262427	-218.962271	480.404108	1074.602140	36.610551	673.194388	947.700013	-40.246513	480.048812	1083.320158	-472.788243	674.657123	944.847092	-411.932707	-44.021059	1143.663394	-189.429832	111.739787	1144.121591	-370.738859	124.200472	1110.832841	-45.620844	137.719286	1091.504268	-335.965307	157.345634	1077.715575	-84.253143	-11.506502	1185.555221	-159.740331	-20.548304	1184.556335	-222.771931	92.472663	1020.813019	-22.955360	85.535756	1098.255822	-395.143826	162.566310	906.924089	-8.839852	217.304829	834.583767	-15.246516	227.312433	748.543068	-27.725076	248.025210	850.191779	-31.647825	252.834995	645.038194	-42.471986	240.402689	620.270791	-153.382549	240.394413	524.145632	-14.294237	249.634625	439.223785	-36.789688	219.665598	357.412188	-38.362025	269.605181	441.233737	-71.531477	203.828092	276.837725	-47.346840	237.758795	275.688283	-138.794656	139.230928	272.261564	-93.747154	384.114045	141.953899	-102.518746	288.457614	162.168343	-30.452727	159.806331	1022.105578	-418.647223	245.445342	1005.445583	-418.604932	261.547584	1035.238538	-402.468619	313.213339	946.659055	-424.843336	386.465335	853.596504	-405.548395	389.252667	837.945267	-288.629683	111.791801	608.532798	-374.276598	32.730685	616.268022	-324.342499	182.763382	492.442611	-399.932222	316.256787	770.048289	-416.693343	266.979675	703.626598	-390.143313	190.184840	661.492079	-391.262749	285.575237	691.042029	-358.292621	262.892184	455.925535	-344.737216	-157.836150	859.466761	-219.141057	-48.629314	84.439337	-419.399874	-50.161221	80.332064	-21.615812	
502	2.5100	467.873467	1335.422950	-69.474144	468.148682	1346.993380	-380.164323	452.742870	1435.722714	-232.022835	468.155585	1266.369589	-220.793124	480.293125	1074.563810	36.533284	673.167859	947.611066	-39.977994	479.038109	1082.115486	-473.566897	674.335299	944.818071	-411.897348	-45.056152	1142.801299	-188.389432	110.085722	1143.401474	-370.217200	123.846719	1110.273123	-44.994140	136.318440	1091.461998	-335.348500	158.179291	1075.158141	-87.273026	-12.576293	1184.716868	-158.762005	-21.679771	1183.869438	-221.750965	92.079214	1019.749486	-22.441173	83.693701	1098.154294	-393.894062	162.898150	905.856842	-9.437501	217.727061	833.696593	-16.298558	228.006138	747.620288	-29.146157	248.323876	849.238809	-33.012159	253.146967	644.308614	-44.261921	239.677668	619.503465	-154.815467	240.561488	523.697131	-15.477794	248.956231	438.757427	-37.836139	218.524941	357.047444	-38.785241	268.611789	440.515029	-72.701526	201.678085	276.395059	-47.340082	235.917928	275.009606	-138.488026	136.962906	272.388421	-93.544371	380.704439	139.821024	-102.575460	285.268456	160.975018	-30.494748	158.240770	1022.441912	-417.787894	244.051106	1006.313894	-418.277101	260.008069	1036.215886	-401.911700	312.064246	947.940373	-424.758716	386.295398	855.295637	-405.352121	389.568946	839.514305	-288.435479	112.982151	608.826150	-373.816900	33.756357	615.584321	-323.727815	185.474153	494.296218	-400.190517	316.431691	771.638771	-416.310767	267.707131	704.881464	-389.883973	191.185815	662.125027	-390.943275	286.486055	692.207055	-358.130467	266.297216	458.870204	-345.092958	-154.316243	858.884241	-217.096246	-48.627666	84.393967	-419.407986	-50.182568	80.322750	-21.604840	
503	2.5150	467.359795	1334.850814	-70.692962	467.316798	1345.550131	-381.079760	452.010390	1434.705307	-233.461460	467.457182	1264.865618	-220.463233	480.143767	1074.433677	36.471702	673.116639	947.466628	-39.810756	478.080844	1080.786256	-474.322836	673.997739	944.786210	-411.861706	-46.157466	1141.889718	-187.369321	108.344563	1142.679793	-369.721989	123.318227	1109.640672	-44.418308	134.812791	1091.355264	-334.549265	157.651697	1074.668994	-86.635959	-13.540070	1183.873456	-157.876897	-22.975266	1182.976300	-220.678235	91.663419	1018.661029	-21.961221	81.807090	1097.922945	-392.743087	163.270166	904.759976	-9.860647	217.597090	833.045922	-17.513088	228.931432	746.686855	-30.638664	248.736046	848.513844	-34.465552	253.837472	643.728202	-46.115878	239.081662	618.790824	-156.418550	240.935489	523.305912	-16.707922	248.542928	438.227338	-39.074799	217.617095	356.740472	-39.226886	267.771594	439.787711	-74.161871	199.515200	275.915500	-47.410296	233.360444	274.091889	-138.792967	134.662808	272.333612	-93.663059	377.321331	137.955732	-102.558890	282.057236	159.744181	-30.553024	156.637202	1022.623138	-416.946811	242.557575	1007.060631	-417.878748	258.418320	1036.990742	-401.366234	310.888833	949.069758	-424.549724	386.025800	856.849091	-405.065337	389.808920	841.067948	-288.114621	114.075274	608.985715	-373.283864	34.722593	614.488751	-323.032347	188.195180	496.010624	-400.351129	316.530216	773.100238	-415.875640	268.298458	705.671496	-389.397761	191.957713	662.927824	-391.004466	287.236484	693.169704	-357.934164	269.643476	461.825388	-345.541372	-157.834754	859.519366	-219.658529	-48.641362	84.376548	-419.405736	-50.160253	80.302876	-21.618472	
504	2.5200	466.919253	1334.194745	-71.875233	466.381138	1344.019921	-382.039420	451.132432	1433.291426	-234.739386	466.560639	1263.486165	-221.303011	479.975359	1074.204953	36.400079	673.368401	947.612108	-39.725250	477.120626	1079.436163	-475.164543	673.678247	944.746184	-411.849303	-47.295524	1140.883318	-186.341538	106.590472	1141.850289	-369.232201	122.734366	1109.031253	-43.569993	133.184939	1091.105528	-334.116612	157.061790	1074.248046	-85.925797	-14.631320	1182.912984	-156.932180	-24.316831	1181.970093	-219.653950	91.357366	1017.479567	-21.739667	79.937440	1097.514068	-391.746942	163.719870	903.604469	-10.323914	218.366266	832.218305	-18.589629	229.850067	745.942940	-32.030176	249.083205	847.835503	-36.131003	255.005642	643.204756	-47.930729	238.685307	618.161889	-158.207758	241.575349	523.041939	-18.111806	248.127416	437.802208	-40.443515	216.729801	356.452161	-39.848487	267.044257	439.040616	-75.703566	197.466530	275.673550	-47.466883	230.543547	273.302392	-139.410889	132.479195	272.371255	-93.867378	373.784563	135.904269	-102.680930	278.870710	158.687902	-30.641124	154.997645	1022.571053	-416.057196	241.023892	1007.576785	-417.365513	256.771915	1037.558434	-400.776029	309.617452	950.000434	-424.184591	385.675787	858.218817	-404.631225	389.874651	842.332648	-287.663204	115.018029	608.967789	-372.661897	35.496857	613.223227	-322.067666	190.792960	497.796584	-400.557741	316.584900	774.293380	-415.388778	268.828382	706.595854	-388.914710	192.791362	663.316380	-390.518556	287.995766	694.090473	-357.624853	273.064200	464.882524	-346.027054	-154.236273	858.898548	-217.366812	-48.652302	84.310837	-419.373621	-50.161690	80.322813	-21.616465	
